<svg width="812" height="212" viewBox="0 0 812 212" fill="none" xmlns="http://www.w3.org/2000/svg">
<path d="M1 2.52019C21 53.3535 59.2 157.02 72 157.02H110.5C124.5 155.52 182.9 1.02019 182.5 1.02019H143.5C135 24.0202 99 117.499 91.5 117.499C85 117.499 55 40.8535 40 2.52019H1Z" fill="white"/>
<path fill-rule="evenodd" clip-rule="evenodd" d="M195.5 2.52019H235V91.9987C234.833 103.165 241.5 121.499 271.5 121.499C305 121.499 318 107.999 319 85.4987V1.02019H358.5V125.999C357.5 177.499 346.5 221.999 208 207.999V181.999C217.715 181.999 222.5 181.999 237.5 181.999C278.5 181.999 313.548 189.027 319 138.999C295.5 159.999 195.5 161.999 195.5 105.499V2.52019Z" fill="white"/>
<path d="M376 156.499H413V63.9987C413 53.4987 426 36.4987 446 36.4987C469.603 36.4987 473.5 36.4987 473.5 36.4987V1.02019H429C411.5 1.02019 375.9 18.5987 375.5 58.9987C375.1 99.3987 375.667 140.832 376 156.499Z" fill="white"/>
<path fill-rule="evenodd" clip-rule="evenodd" d="M598 114.499C595.167 119.165 579.8 130.099 557 130.499C543 130.165 511.9 121.599 509.5 95.9987H636.5C639 63.4985 633.7 -0.179814 554.5 1.02019C526.333 0.346372 470 16.2987 470 85.4987C470.833 111.165 494.9 161.898 560.5 159.499C576 159.499 617 151.999 633 114.499H598ZM554.5 31.4985C521 31.4985 512.833 51.3319 512.5 61.4985L598 62.4985C598 32.9985 570.5 31.4985 554.5 31.4985Z" fill="white"/>
<path d="M72 157.02C59.2 157.02 21 53.3535 1 2.52019H40C55 40.8535 85 117.499 91.5 117.499C99 117.499 135 24.0202 143.5 1.02019H182.5C182.9 1.02019 124.5 155.52 110.5 157.02M72 157.02H110.5M72 157.02C84.8 157.02 104 157.02 110.5 157.02M195.5 2.52019H235V91.9987C234.833 103.165 241.5 121.499 271.5 121.499C305 121.499 318 107.999 319 85.4987V1.02019H358.5V125.999C357.5 177.499 346.5 221.999 208 207.999V181.999C217.715 181.999 222.5 181.999 237.5 181.999C278.5 181.999 313.548 189.027 319 138.999C295.5 159.999 195.5 161.999 195.5 105.499V2.52019ZM376 156.499H413V63.9987C413 53.4987 426 36.4987 446 36.4987C469.603 36.4987 473.5 36.4987 473.5 36.4987V1.02019H429C411.5 1.02019 375.9 18.5987 375.5 58.9987C375.1 99.3987 375.667 140.832 376 156.499ZM598 114.499C595.167 119.165 579.8 130.099 557 130.499C543 130.165 511.9 121.599 509.5 95.9987H636.5C639 63.4985 633.7 -0.179814 554.5 1.02019C526.333 0.346372 470 16.2987 470 85.4987C470.833 111.165 494.9 161.898 560.5 159.499C576 159.499 617 151.999 633 114.499H598ZM512.5 61.4985C512.833 51.3319 521 31.4985 554.5 31.4985C570.5 31.4985 598 32.9985 598 62.4985L512.5 61.4985Z" stroke="white"/>
<path d="M627 1.49854H673.5C673.5 1.49854 714 52.9985 720.5 52.9985C727 52.9985 765.5 1.49854 765.5 1.49854H810.5C810.5 1.49854 748 67.4985 748 79.2485C748 90.9985 810.5 156.999 810.5 156.999H765.5C765.5 156.999 726 106.999 718.5 106.999C711 106.999 673.5 156.999 673.5 156.999H627C627 156.999 689.5 91.4985 689.5 82.4985C689.5 73.4985 627 1.49854 627 1.49854Z" fill="white" stroke="white"/>
</svg>
